<svg xmlns="http://www.w3.org/2000/svg" style="display: none;">

  <!-- Search Icon -->
  <symbol id="icon-search" viewBox="0 0 24 24" fill="none" stroke="currentColor" stroke-width="2" stroke-linecap="round" stroke-linejoin="round">
    <circle cx="11" cy="11" r="8"></circle>
    <line x1="21" y1="21" x2="16.65" y2="16.65"></line>
  </symbol>

  <!-- Sun Icon (for Light Mode) -->
  <symbol id="icon-sun" viewBox="0 0 24 24" fill="none" stroke="currentColor" stroke-width="2" stroke-linecap="round" stroke-linejoin="round">
    <circle cx="12" cy="12" r="5"></circle>
    <line x1="12" y1="1" x2="12" y2="3"></line>
    <line x1="12" y1="21" x2="12" y2="23"></line>
    <line x1="4.22" y1="4.22" x2="5.64" y2="5.64"></line>
    <line x1="18.36" y1="18.36" x2="19.78" y2="19.78"></line>
    <line x1="1" y1="12" x2="3" y2="12"></line>
    <line x1="21" y1="12" x2="23" y2="12"></line>
    <line x1="4.22" y1="19.78" x2="5.64" y2="18.36"></line>
    <line x1="18.36" y1="5.64" x2="19.78" y2="4.22"></line>
  </symbol>

  <!-- Moon Icon (for Dark Mode) -->
  <symbol id="icon-moon" viewBox="0 0 24 24" fill="currentColor">
    <path d="M12 1.992a10 10 0 1 0 9.236 13.838c.341-.82-.476-1.644-1.298-1.31a6.5 6.5 0 0 1-6.864-10.787l.077-.08c.551-.63.113-1.653-.758-1.653h-.266l-.068-.006z"/>
  </symbol>

  <!-- Facebook Icon -->
  <symbol id="icon-facebook" viewBox="0 0 24 24">
    <path fill="currentColor" d="M22 12c0-5.52-4.48-10-10-10S2 6.48 2 12c0 4.84 3.44 8.87 8 9.8V15H8v-3h2V9.5C10 7.57 11.57 6 13.5 6H16v3h-2c-.55 0-1 .45-1 1v2h3v3h-3v6.95c5.05-.5 9-4.76 9-9.95"/>
  </symbol>

  <!-- Telegram Icon -->
  <symbol id="icon-telegram" viewBox="0 0 24 24">
    <path fill="currentColor" d="M12 2C6.48 2 2 6.48 2 12s4.48 10 10 10s10-4.48 10-10S17.52 2 12 2m4.64 6.8c-.15 1.58-.8 5.42-1.13 7.19c-.14.75-.42 1-.68 1.03c-.58.05-1.02-.38-1.58-.75c-.88-.58-1.38-.94-2.23-1.5c-.99-.65-.35-1.01.22-1.59c.15-.15 2.71-2.48 2.76-2.69a.2.2 0 0 0-.05-.18c-.06-.05-.14-.03-.21-.02c-.09.02-1.49.95-4.22 2.79c-.4.27-.76.41-1.08.4c-.36-.01-1.04-.2-1.55-.37c-.63-.2-1.12-.31-1.08-.66c.02-.18.27-.36.74-.55c2.92-1.27 4.86-2.11 5.83-2.51c2.78-1.16 3.35-1.36 3.73-1.36c.08 0 .27.02.39.12c.1.08.13.19.14.27c-.01.06.01.24 0 .38"/>
  </symbol>

  <!-- YouTube Icon -->
  <symbol id="icon-youtube" viewBox="0 0 24 24">
    <path fill="currentColor" d="m10 15l5.19-3L10 9zm11.56-7.83c.13.47.22 1.1.28 1.9c.07.8.1 1.49.1 2.09L22 12c0 2.19-.16 3.8-.44 4.83c-.25.9-.83 1.48-1.73 1.73c-.47.13-1.33.22-2.65.28c-1.3.07-2.49.1-3.59.1L12 19c-4.19 0-6.8-.16-7.83-.44c-.9-.25-1.48-.83-1.73-1.73c-.13-.47-.22-1.1-.28-1.9c-.07-.8-.1-1.49-.1-2.09L2 12c0-2.19.16-3.8.44-4.83c.25-.9.83-1.48 1.73-1.73c.47-.13 1.33-.22 2.65-.28c1.3-.07 2.49-.1 3.59-.1L12 5c4.19 0 6.8.16 7.83.44c.9.25 1.48.83 1.73 1.73"/>
  </symbol>

  <!-- LinkedIn Icon -->
  <symbol id="icon-linkedin" viewBox="0 0 24 24">
    <path fill="currentColor" d="M19 3a2 2 0 0 1 2 2v14a2 2 0 0 1-2 2H5a2 2 0 0 1-2-2V5a2 2 0 0 1 2-2zm-.5 15.5v-5.3a3.26 3.26 0 0 0-3.26-3.26c-.85 0-1.84.52-2.32 1.3v-1.11h-2.79v8.37h2.79v-4.93c0-.77.62-1.4 1.39-1.4a1.4 1.4 0 0 1 1.4 1.4v4.93zM6.88 8.56a1.68 1.68 0 0 0 1.68-1.68c0-.93-.75-1.69-1.68-1.69a1.69 1.69 0 0 0-1.69 1.69c0 .93.76 1.68 1.69 1.68m1.39 9.94v-8.37H5.5v8.37z"/>
  </symbol>

  <!-- GitHub Icon -->
  <symbol id="icon-github" viewBox="0 0 24 24">
    <path fill="currentColor" d="M12 2A10 10 0 0 0 2 12c0 4.42 2.87 8.17 6.84 9.5c.5.08.66-.23.66-.5v-1.69c-2.77.6-3.36-1.34-3.36-1.34c-.46-1.16-1.11-1.47-1.11-1.47c-.91-.62.07-.6.07-.6c1 .07 1.53 1.03 1.53 1.03c.87 1.52 2.34 1.07 2.91.83c.09-.65.35-1.09.63-1.34c-2.22-.25-4.55-1.11-4.55-4.92c0-1.11.38-2 1.03-2.71c-.1-.25-.45-1.29.1-2.64c0 0 .84-.27 2.75 1.02c.79-.22 1.65-.33 2.5-.33s1.71.11 2.5.33c1.91-1.29 2.75-1.02 2.75-1.02c.55 1.35.2 2.39.1 2.64c.65.71 1.03 1.6 1.03 2.71c0 3.82-2.34 4.66-4.57 4.91c.36.31.69.92.69 1.85V21c0 .27.16.59.67.5C19.14 20.16 22 16.42 22 12A10 10 0 0 0 12 2"/>
  </symbol>

  <!-- Gmail Icon -->
  <symbol id="icon-gmail" viewBox="0 0 24 24">
    <path fill="currentColor" fill-rule="evenodd" d="M6.712 3.97a59.4 59.4 0 0 1 10.576 0l1.518.136A3.28 3.28 0 0 1 21.76 6.9a35.3 35.3 0 0 1 0 10.2a3.28 3.28 0 0 1-2.954 2.793l-1.518.136a59.4 59.4 0 0 1-10.576 0l-1.518-.136A3.28 3.28 0 0 1 2.24 17.1a35.3 35.3 0 0 1 0-10.2a3.28 3.28 0 0 1 2.954-2.794zm-.856 2.87a.75.75 0 0 0-1.106.66V17a.75.75 0 0 0 1.5 0V8.756l5.394 2.904c.222.12.49.12.712 0l5.394-2.904V17a.75.75 0 0 0 1.5 0V7.5a.75.75 0 0 0-1.106-.66L12 10.148z" clip-rule="evenodd"/>
  </symbol>

  <!-- Lightbulb Icon -->
  <symbol id="icon-lightbulb" viewBox="0 0 24 24">
    <path fill="currentColor" d="M9 21c0 .5.4 1 1 1h4c.6 0 1-.5 1-1v-1H9v1zm3-19C8.1 2 5 5.1 5 9c0 2.4 1.2 4.5 3 5.7V17c0 .5.4 1 1 1h6c.6 0 1-.5 1-1v-2.3c1.8-1.2 3-3.3 3-5.7 0-3.9-3.1-7-7-7z"/>
  </symbol>

  <!-- Check Circle Icon -->
  <symbol id="icon-check-circle" viewBox="0 0 24 24">
    <path fill="currentColor" d="M12 2C6.48 2 2 6.48 2 12s4.48 10 10 10s10-4.48 10-10S17.52 2 12 2zm-2 15l-5-5l1.41-1.41L10 14.17l7.59-7.59L19 8l-9 9z"/>
  </symbol>

  <!-- Code Icon -->
  <symbol id="icon-code" viewBox="0 0 24 24">
    <path fill="currentColor" d="M8.5 12L4.75 8.25l1.41-1.41L10.33 11L6.16 15.17l-1.41-1.42L8.5 12zm7 0l3.75 3.75l-1.41 1.41L13.67 13l4.17-4.17l1.41 1.42L15.5 12z"/>
  </symbol>

  <!-- Design/Figma Icon -->
  <symbol id="icon-design" viewBox="0 0 24 24">
    <path fill="currentColor" d="M12 2l3.09 6.26L22 9.27l-5 4.87L18.18 22L12 18.77L5.82 22L7 14.14l-5-4.87l6.91-1.01L12 2z"/>
  </symbol>

  <!-- Database Icon -->
  <symbol id="icon-database" viewBox="0 0 24 24">
    <path fill="currentColor" d="M12 3C7.58 3 4 4.79 4 7s3.58 4 8 4s8-1.79 8-4s-3.58-4-8-4M4 9v3c0 2.21 3.58 4 8 4s8-1.79 8-4V9c0 2.21-3.58 4-8 4s-8-1.79-8-4m0 5v3c0 2.21 3.58 4 8 4s8-1.79 8-4v-3c0 2.21-3.58 4-8 4s-8-1.79-8-4"/>
  </symbol>

  <!-- Desktop/Monitor Icon -->
  <symbol id="icon-desktop" viewBox="0 0 24 24">
    <path fill="currentColor" d="M21 2H3c-1.1 0-2 .9-2 2v12c0 1.1.9 2 2 2h7l-2 3v1h8v-1l-2-3h7c1.1 0 2-.9 2-2V4c0-1.1-.9-2-2-2zm0 12H3V4h18v10z"/>
  </symbol>

  <!-- Mobile/Phone Icon -->
  <symbol id="icon-mobile" viewBox="0 0 24 24">
    <path fill="currentColor" d="M17 2H7c-1.1 0-2 .9-2 2v16c0 1.1.9 2 2 2h10c1.1 0 2-.9 2-2V4c0-1.1-.9-2-2-2zm0 14H7V6h10v10z"/>
  </symbol>

  <!-- Cog/Settings Icon for Tools -->
  <symbol id="icon-cog" viewBox="0 0 24 24">
    <path fill="currentColor" d="M12 15.5A3.5 3.5 0 0 1 8.5 12A3.5 3.5 0 0 1 12 8.5a3.5 3.5 0 0 1 3.5 3.5a3.5 3.5 0 0 1-3.5 3.5m7.43-2.53c.04-.32.07-.64.07-.97c0-.33-.03-.66-.07-1l2.11-1.63c.19-.15.24-.42.12-.64l-2-3.46c-.12-.22-.39-.31-.61-.22l-2.49 1c-.52-.39-1.06-.73-1.69-.98l-.37-2.65A.506.506 0 0 0 14 2h-4c-.25 0-.46.18-.5.42l-.37 2.65c-.63.25-1.17.59-1.69.98l-2.49-1c-.22-.09-.49 0-.61.22l-2 3.46c-.13.22-.07.49.12.64L4.57 11c-.04.34-.07.67-.07 1c0 .33.03.65.07.97l-2.11 1.66c-.19.15-.25.42-.12.64l2 3.46c.12.22.39.3.61.22l2.49-1.01c.52.4 1.06.74 1.69.99l.37 2.65c.04.24.25.42.5.42h4c.25 0 .46-.18.5-.42l.37-2.65c.63-.26 1.17-.59 1.69-.99l2.49 1.01c.22.08.49 0 .61-.22l-2-3.46c.12-.22.07-.49-.12-.64l-2.11-1.66Z"/>
  </symbol>

  <!-- Tools Icon -->
  <symbol id="icon-tools" viewBox="0 0 24 24">
    <path fill="currentColor" d="M13.78 15.3L19.78 21.3L21.89 19.14L15.89 13.14L13.78 15.3M17.5 10.1C17.11 10.1 16.69 10.05 16.36 9.91L4.97 21.25L2.86 19.14L10.27 11.74C8.5 8.91 9.04 5.36 12.04 3.36L13.55 4.85C12.9 5.89 12.85 7.16 13.46 8.24L15.21 6.49L16.36 7.63L14.61 9.38C15.69 9.99 16.96 9.94 18 9.29L19.5 10.8C18.22 12.08 17.39 10.1 17.5 10.1M2.68 12.13L5.5 9.31L9.31 13.12L6.5 15.94L2.68 12.13Z"/>
  </symbol>

  <!-- Framework Icon -->
  <symbol id="icon-framework" viewBox="0 0 24 24">
    <path fill="currentColor" d="M12 2l3.09 6.26L22 9.27l-5 4.87L18.18 22L12 18.77L5.82 22L7 14.14L2 9.27l6.91-1.01L12 2z"/>
  </symbol>

  <!-- Terminal Icon -->
  <symbol id="icon-terminal" viewBox="0 0 24 24">
    <path fill="currentColor" d="M20 4H4c-1.11 0-2 .89-2 2v12c0 1.11.89 2 2 2h16c1.11 0 2-.89 2-2V6c0-1.11-.89-2-2-2zm0 14H4V8h16v10zm-10-1h6v-2h-6v2zm-4-3l2-2l-2-2l-1.5 1.5L6 12l-1.5 1.5L6 15z"/>
  </symbol>

  <!-- Heart Icon for Soft Skills -->
  <symbol id="icon-heart" viewBox="0 0 24 24">
    <path fill="currentColor" d="M12 21.35l-1.45-1.32C5.4 15.36 2 12.28 2 8.5C2 5.42 4.42 3 7.5 3c1.74 0 3.41.81 4.5 2.09C13.09 3.81 14.76 3 16.5 3C19.58 3 22 5.42 22 8.5c0 3.78-3.4 6.86-8.55 11.54L12 21.35z"/>
  </symbol>

  <!-- Figma Icon -->
  <symbol id="icon-figma" viewBox="0 0 24 24">
    <path fill="currentColor" d="M5 5.5A3.5 3.5 0 0 1 8.5 2H12v7H8.5A3.5 3.5 0 0 1 5 5.5z"/>
    <path fill="currentColor" d="M12 2h3.5a3.5 3.5 0 1 1 0 7H12V2z"/>
    <path fill="currentColor" d="M12 12.5a3.5 3.5 0 1 1 7 0 3.5 3.5 0 1 1-7 0z"/>
    <path fill="currentColor" d="M5 19.5A3.5 3.5 0 0 1 8.5 16H12v3.5a3.5 3.5 0 1 1-7 0z"/>
    <path fill="currentColor" d="M5 12.5A3.5 3.5 0 0 1 8.5 9H12v7H8.5A3.5 3.5 0 0 1 5 12.5z"/>
  </symbol>

  <!-- Debug Icon -->
  <symbol id="icon-debug" viewBox="0 0 24 24">
    <rect width="20" height="16" x="2" y="4" rx="2" fill="none" stroke="currentColor" stroke-width="2"/>
    <path d="m22 7-3-1" stroke="currentColor" stroke-width="2"/>
    <path d="M6 8h8" stroke="currentColor" stroke-width="2"/>
    <path d="M6 12h8" stroke="currentColor" stroke-width="2"/>
    <path d="M6 16h8" stroke="currentColor" stroke-width="2"/>
    <path d="m22 17-3-1" stroke="currentColor" stroke-width="2"/>
    <path d="m5 7-3-1" stroke="currentColor" stroke-width="2"/>
    <path d="m5 17-3-1" stroke="currentColor" stroke-width="2"/>
  </symbol>

  <!-- Code Brackets Icon (for Featured Projects header) -->
  <symbol id="icon-code-brackets" viewBox="0 0 24 24">
    <path fill="currentColor" d="M9.4 16.6L4.8 12l4.6-4.6L8 6l-6 6l6 6zm5.2 0L19.2 12l-4.6-4.6L16 6l6 6l-6 6z"/>
  </symbol>

  <!-- Calendar Icon -->
  <symbol id="icon-calendar" viewBox="0 0 24 24">
    <path fill="currentColor" d="M19 3h-1V1h-2v2H8V1H6v2H5c-1.11 0-1.99.9-1.99 2L3 19c0 1.1.89 2 2 2h14c1.1 0 2-.9 2-2V5c0-1.1-.9-2-2-2zm0 16H5V8h14v11zM7 10h5v5H7z"/>
  </symbol>

  <!-- Trophy Icon -->
  <symbol id="icon-trophy" viewBox="0 0 24 24">
    <path fill="currentColor" d="M7 4V2c0-1.1.9-2 2-2h6c1.1 0 2 .9 2 2v2h4v2h-1l-.6 9c-.1 1.4-1.3 2.5-2.7 2.5H7.3c-1.4 0-2.6-1.1-2.7-2.5L4 6H3V4h4zm2 0h6V2H9v2zm3 4.5c.8 0 1.5.7 1.5 1.5s-.7 1.5-1.5 1.5S10.5 10.8 10.5 10s.7-1.5 1.5-1.5zm-3 8.5h6l.4-6H8.6l.4 6z"/>
  </symbol>

  <!-- Award Icon -->
  <symbol id="icon-award" viewBox="0 0 24 24">
    <circle cx="12" cy="8" r="6" fill="none" stroke="currentColor" stroke-width="2"/>
    <path d="M15.477 12.89 17 22l-5-3-5 3 1.523-9.11" fill="none" stroke="currentColor" stroke-width="2" stroke-linecap="round" stroke-linejoin="round"/>
  </symbol>

  <!-- Edit Icon -->
  <symbol id="icon-edit" viewBox="0 0 24 24">
    <path fill="currentColor" d="M3 17.25V21h3.75L17.81 9.94l-3.75-3.75L3 17.25zM20.71 7.04c.39-.39.39-1.02 0-1.41l-2.34-2.34c-.39-.39-1.02-.39-1.41 0l-1.83 1.83 3.75 3.75 1.83-1.83z"/>
  </symbol>

  <!-- Mail Icon -->
  <symbol id="icon-mail" viewBox="0 0 24 24">
    <path fill="currentColor" d="M20 4H4c-1.1 0-1.99.9-1.99 2L2 18c0 1.1.9 2 2 2h16c1.1 0 2-.9 2-2V6c0-1.1-.9-2-2-2zm0 4l-8 5-8-5V6l8 5 8-5v2z"/>
  </symbol>

  <!-- Briefcase Icon -->
  <symbol id="icon-briefcase" viewBox="0 0 24 24">
    <rect x="2" y="7" width="20" height="14" rx="2" ry="2" fill="none" stroke="currentColor" stroke-width="2"/>
    <path d="M16 21V5a2 2 0 0 0-2-2h-4a2 2 0 0 0-2 2v16" fill="none" stroke="currentColor" stroke-width="2"/>
  </symbol>

  <!-- Target Icon -->
  <symbol id="icon-target" viewBox="0 0 24 24">
    <circle cx="12" cy="12" r="10" fill="none" stroke="currentColor" stroke-width="2"/>
    <circle cx="12" cy="12" r="6" fill="none" stroke="currentColor" stroke-width="2"/>
    <circle cx="12" cy="12" r="2" fill="none" stroke="currentColor" stroke-width="2"/>
  </symbol>

  <!-- User Icon -->
  <symbol id="icon-user" viewBox="0 0 24 24">
    <path fill="currentColor" d="M12 12c2.21 0 4-1.79 4-4s-1.79-4-4-4-4 1.79-4 4 1.79 4 4 4zm0 2c-2.67 0-8 1.34-8 4v2h16v-2c0-2.66-5.33-4-8-4z"/>
  </symbol>

  <!-- Unity Icon -->
  <symbol id="icon-unity" viewBox="0 0 24 24">
    <circle cx="12" cy="12" r="10" fill="#000000"/>
    <path fill="white" d="M12 4l6 6h-4v6l-4-4-4 4V10H6l6-6z"/>
  </symbol>

  <!-- Game Controller Icon -->
  <symbol id="icon-gamepad" viewBox="0 0 14 14">
    <g fill="none" stroke="currentColor" stroke-linecap="round" stroke-linejoin="round" stroke-width="1">
      <path d="M4.4 7v2.31m1.156-1.154H3.245m-1.989-.963l-.412 3.71a2.283 2.283 0 0 0 4.311 1.272l.36-.718h2.97l.36.718a2.283 2.283 0 0 0 4.31-1.273l-.411-3.71a3 3 0 0 0-2.982-2.668H4.238a3 3 0 0 0-2.982 2.669"/>
      <path d="M7 4.524v-.98a1 1 0 0 1 1-1h1.466a1 1 0 0 0 1-1V.562m0 6.933a.248.248 0 0 1 0-.495m0 .495a.248.248 0 1 0 0-.495M8.733 8.733a.248.248 0 0 1 .495 0m-.495 0a.248.248 0 0 0 .495 0"/>
    </g>
  </symbol>

</svg>